<?xml version="1.0" encoding="UTF-8" standalone="no"?>
<!-- Generator: Adobe Illustrator 18.0.0, SVG Export Plug-In . SVG Version: 6.00 Build 0)  -->

<svg
   xmlns:dc="http://purl.org/dc/elements/1.1/"
   xmlns:cc="http://creativecommons.org/ns#"
   xmlns:rdf="http://www.w3.org/1999/02/22-rdf-syntax-ns#"
   xmlns:svg="http://www.w3.org/2000/svg"
   xmlns="http://www.w3.org/2000/svg"
   xmlns:sodipodi="http://sodipodi.sourceforge.net/DTD/sodipodi-0.dtd"
   xmlns:inkscape="http://www.inkscape.org/namespaces/inkscape"
   version="1.1"
   x="0px"
   y="0px"
   viewBox="0 0 240 60.000001"
   enable-background="new 0 0 1378 1109.6"
   xml:space="preserve"
   id="svg809"
   sodipodi:docname="canvas_social.svg"
   inkscape:version="0.92.3 (d244b95, 2018-08-02)"
   width="240"
   height="60"><metadata
   id="metadata815"><rdf:RDF><cc:Work
       rdf:about=""><dc:format>image/svg+xml</dc:format><dc:type
         rdf:resource="http://purl.org/dc/dcmitype/StillImage" /><dc:title></dc:title></cc:Work></rdf:RDF></metadata><defs
   id="defs813"><clipPath
     clipPathUnits="userSpaceOnUse"
     id="clipPath1095"><rect
       style="fill:none"
       id="rect1097"
       width="60"
       height="60"
       x="205.06589"
       y="129.8049" /></clipPath><clipPath
     clipPathUnits="userSpaceOnUse"
     id="clipPath1209"><rect
       style="fill:none"
       id="rect1211"
       width="60"
       height="60"
       x="335.89841"
       y="128.22647" /></clipPath><clipPath
     clipPathUnits="userSpaceOnUse"
     id="clipPath1215"><rect
       style="fill:none"
       id="rect1217"
       width="60"
       height="60"
       x="849.55188"
       y="128.25433" /></clipPath><clipPath
     clipPathUnits="userSpaceOnUse"
     id="clipPath1221"><rect
       style="fill:none"
       id="rect1223"
       width="60"
       height="60"
       x="978.42047"
       y="129.56508" /></clipPath></defs><sodipodi:namedview
   pagecolor="#ffffff"
   bordercolor="#666666"
   borderopacity="1"
   objecttolerance="10"
   gridtolerance="10"
   guidetolerance="10"
   inkscape:pageopacity="0"
   inkscape:pageshadow="2"
   inkscape:window-width="1317"
   inkscape:window-height="713"
   id="namedview811"
   showgrid="false"
   inkscape:zoom="3.7833333"
   inkscape:cx="120"
   inkscape:cy="30"
   inkscape:window-x="49"
   inkscape:window-y="27"
   inkscape:window-maximized="1"
   inkscape:current-layer="layer4" />








<g
   inkscape:groupmode="layer"
   id="layer4"
   inkscape:label="Layer 2"
   transform="translate(0,-1049.6)"><g
     id="_x30_1-SINGLE-GREY"
     clip-path="url(#clipPath1095)"
     transform="translate(-208.64602,918.66492)">
	<path
   id="Vimeo"
   d="m 1153.1,145 c -5.1,-0.2 -8.5,2.7 -10.4,8.5 0.9,-0.4 1.8,-0.6 2.7,-0.6 1.9,0 2.7,1 2.5,3.1 -0.1,1.3 -0.9,3.1 -2.5,5.5 -1.5,2.4 -2.7,3.6 -3.5,3.6 -1,0 -1.9,-1.8 -2.7,-5.5 -0.3,-1.1 -0.8,-3.8 -1.5,-8.3 -0.7,-4.1 -2.4,-6 -5.3,-5.8 -1.2,0.1 -3,1.2 -5.4,3.3 -1.8,1.6 -3.5,3.1 -5.3,4.7 l 1.7,2.2 c 1.6,-1.1 2.6,-1.7 2.9,-1.7 1.3,0 2.4,2 3.5,5.9 1,3.6 2,7.2 3,10.7 1.5,3.9 3.3,5.8 5.4,5.8 3.5,0 7.7,-3.2 12.7,-9.6 4.8,-6.1 7.3,-10.9 7.5,-14.5 0.3,-4.7 -1.5,-7.1 -5.3,-7.3 z"
   inkscape:connector-curvature="0"
   style="fill:#8e99a8" />
	<path
   id="Instagram"
   d="m 1025.1,142.1 h -27.9 c -2.4,0 -4.4,1.9 -4.4,4.3 v 28 c 0,2.4 2,4.3 4.4,4.3 h 27.9 c 2.4,0 4.4,-1.9 4.4,-4.3 v -28 c -0.1,-2.3 -2,-4.3 -4.4,-4.3 z m -6,5.8 c 0,-0.6 0.5,-1.1 1.1,-1.1 h 3.4 c 0.6,0 1.1,0.5 1.1,1.1 v 3.4 c 0,0.6 -0.5,1.1 -1.1,1.1 h -3.4 c -0.6,0 -1.1,-0.5 -1.1,-1.1 z m -8,5.6 c 3.9,0 7.1,3.1 7.1,7 0,3.9 -3.2,7 -7.1,7 -3.9,0 -7,-3.1 -7,-7 0,-3.9 3.1,-7 7,-7 z m 14.9,20.7 c 0,0.6 -0.5,1.1 -1.1,1.1 h -27.5 c -0.6,0 -1.1,-0.5 -1.1,-1.1 V 157 h 4.6 c -0.6,0.9 -0.8,2.5 -0.8,3.5 0,6.1 5,11.1 11.2,11.1 6.2,0 11.2,-5 11.2,-11.1 0,-1 -0.1,-2.6 -0.9,-3.5 h 4.6 v 17.2 z"
   inkscape:connector-curvature="0"
   style="fill:#8e99a8" />
	<path
   id="Twitter"
   d="m 900.4,145.3 c -1.5,0.9 -3.1,1.6 -4.9,1.9 -1.4,-1.5 -3.4,-2.5 -5.6,-2.5 -4.2,0 -7.7,3.5 -7.7,7.9 0,0.6 0.1,1.2 0.2,1.8 -6.4,-0.3 -12,-3.5 -15.8,-8.2 -0.7,1.2 -1,2.5 -1,4 0,2.7 1.4,5.1 3.4,6.6 -1.3,0 -2.4,-0.4 -3.5,-1 v 0.1 c 0,3.8 2.6,7 6.2,7.7 -0.6,0.2 -1.3,0.3 -2,0.3 -0.5,0 -1,0 -1.4,-0.1 1,3.1 3.8,5.4 7.2,5.5 -2.6,2.1 -5.9,3.4 -9.5,3.4 -0.6,0 -1.2,0 -1.8,-0.1 3.4,2.2 7.4,3.5 11.8,3.5 14.1,0 21.9,-12 21.9,-22.4 0,-0.3 0,-0.7 0,-1 1.5,-1.1 2.8,-2.5 3.8,-4.1 -1.4,0.6 -2.9,1.1 -4.4,1.2 1.3,-1.1 2.5,-2.6 3.1,-4.5 z"
   inkscape:connector-curvature="0"
   style="fill:#8e99a8" />
	<g
   id="LinkedIn">
		<rect
   x="737.29999"
   y="154.8"
   width="7.1999998"
   height="22.799999"
   id="rect787"
   style="fill:#8e99a8" />
		<path
   d="m 764.1,154.6 c -4.1,0 -6.7,2.2 -7.2,3.8 v -3.6 h -8.1 c 0.1,1.9 0,22.8 0,22.8 h 8.1 v -12.3 c 0,-0.7 0,-1.4 0.2,-1.9 0.6,-1.4 1.7,-2.8 3.9,-2.8 2.8,0 4.1,2.1 4.1,5.2 v 11.8 h 8.2 v -12.7 c -0.1,-7 -4.1,-10.3 -9.2,-10.3 z"
   id="path789"
   inkscape:connector-curvature="0"
   style="fill:#8e99a8" />
		<path
   d="m 740.7,144.1 c -2.7,0 -4.4,1.7 -4.4,4 0,2.2 1.7,3.9 4.3,3.9 h 0.1 c 2.7,0 4.4,-1.7 4.4,-4 -0.1,-2.2 -1.7,-3.9 -4.4,-3.9 z"
   id="path791"
   inkscape:connector-curvature="0"
   style="fill:#8e99a8" />
	</g>
	<g
   id="Behance">
		<path
   d="m 622.4,159.5 c 0.8,-0.4 1.3,-0.8 1.7,-1.3 0.7,-0.8 1,-1.9 1,-3.3 0,-1.3 -0.3,-2.5 -1,-3.4 -1.2,-1.5 -3.1,-2.3 -5.9,-2.4 h -10.9 v 22.3 h 10.2 c 1.2,0 2.2,-0.1 3.2,-0.3 1,-0.2 1.8,-0.6 2.6,-1.1 0.6,-0.5 1.2,-1.1 1.6,-1.8 0.7,-1 1,-2.2 1,-3.6 0,-1.3 -0.3,-2.4 -0.9,-3.3 -0.6,-0.7 -1.4,-1.4 -2.6,-1.8 z m -10.5,-6.4 h 4.9 c 1.1,0 2,0.1 2.7,0.3 0.8,0.3 1.2,1 1.2,2.1 0,0.9 -0.3,1.6 -0.9,2 -0.6,0.4 -1.4,0.6 -2.4,0.6 h -5.5 z m 7.8,14.1 c -0.5,0.3 -1.3,0.4 -2.3,0.4 h -5.5 v -6 h 5.6 c 1,0 1.7,0.1 2.3,0.4 1,0.4 1.4,1.2 1.4,2.4 -0.1,1.4 -0.6,2.4 -1.5,2.8 z"
   id="path794"
   inkscape:connector-curvature="0"
   style="fill:#8e99a8" />
		<rect
   x="630.79999"
   y="150.2"
   width="9.6999998"
   height="2.8"
   id="rect796"
   style="fill:#8e99a8" />
		<path
   d="m 642.5,157.8 c -0.8,-1.1 -1.7,-1.9 -2.9,-2.4 -1.2,-0.5 -2.5,-0.8 -3.9,-0.8 -2.5,0 -4.4,0.8 -6,2.3 -1.5,1.5 -2.3,3.7 -2.3,6.6 0,3.1 0.8,5.3 2.6,6.6 1.7,1.4 3.7,2 5.9,2 2.7,0 4.8,-0.8 6.3,-2.4 1,-1 1.5,-2 1.6,-3 h -4.5 c -0.3,0.5 -0.6,0.9 -0.9,1.1 -0.6,0.5 -1.4,0.8 -2.4,0.8 -0.9,0 -1.7,-0.2 -2.4,-0.6 -1.1,-0.7 -1.7,-1.8 -1.8,-3.5 H 644 c 0,-1.4 0,-2.5 -0.1,-3.3 -0.3,-1.3 -0.7,-2.4 -1.4,-3.4 z m -10.6,3.8 c 0.2,-1.1 0.5,-1.9 1.2,-2.6 0.6,-0.6 1.5,-0.9 2.6,-0.9 1,0 1.9,0.3 2.6,0.9 0.7,0.6 1.1,1.5 1.2,2.6 z"
   id="path798"
   inkscape:connector-curvature="0"
   style="fill:#8e99a8" />
	</g>
	<path
   id="Dribbble"
   d="m 514,153.3 c -0.5,-1.1 -1,-2.1 -1.7,-3.1 -0.7,-1 -1.4,-1.9 -2.2,-2.7 -0.8,-0.8 -1.7,-1.6 -2.7,-2.2 -1,-0.7 -2,-1.2 -3.1,-1.7 -1.1,-0.5 -2.3,-0.8 -3.4,-1.1 -1.2,-0.2 -2.4,-0.4 -3.7,-0.4 -1.2,0 -2.5,0.1 -3.7,0.4 -1.2,0.2 -2.3,0.6 -3.4,1.1 -1.1,0.5 -2.1,1 -3.1,1.7 -1,0.7 -1.9,1.4 -2.7,2.2 -0.8,0.8 -1.6,1.7 -2.2,2.7 -0.7,1 -1.2,2 -1.7,3.1 -0.5,1.1 -0.8,2.3 -1.1,3.4 -0.2,1.2 -0.4,2.4 -0.4,3.7 0,1.2 0.1,2.5 0.4,3.7 0.2,1.2 0.6,2.3 1.1,3.4 0.5,1.1 1,2.1 1.7,3.1 0.7,1 1.4,1.9 2.2,2.7 0.8,0.8 1.7,1.6 2.7,2.2 1,0.7 2,1.2 3.1,1.7 1.1,0.5 2.3,0.8 3.4,1.1 1.2,0.3 2.4,0.4 3.7,0.4 1.2,0 2.5,-0.1 3.7,-0.4 1.2,-0.2 2.3,-0.6 3.4,-1.1 1.1,-0.5 2.1,-1 3.1,-1.7 1,-0.7 1.9,-1.4 2.7,-2.2 0.8,-0.8 1.6,-1.7 2.2,-2.7 0.7,-1 1.2,-2 1.7,-3.1 0.5,-1.1 0.8,-2.3 1.1,-3.4 0.2,-1.2 0.4,-2.4 0.4,-3.7 0,-1.2 -0.1,-2.5 -0.4,-3.7 -0.3,-1.1 -0.6,-2.3 -1.1,-3.4 z m -16.9,-8.5 c 4,0 7.6,1.5 10.3,3.9 0,0.1 -2.3,3.5 -8.2,5.7 -2.7,-4.9 -5.6,-8.8 -5.9,-9.1 1.3,-0.3 2.6,-0.5 3.8,-0.5 z m -3.7,0.4 c 0,0.1 0,0.1 0,0 0,0.1 0,0.1 0,0 -0.1,0.1 0,0.1 0,0 z m -3,1.1 c 0.2,0.3 3.1,4.2 5.8,9 -7.5,2 -14,1.9 -14.5,1.9 1.1,-4.8 4.4,-8.8 8.7,-10.9 z m -4.9,24.6 c -2.5,-2.8 -4,-6.4 -4,-10.5 0,-0.2 0,-0.3 0,-0.5 0.3,0 8,0.2 16.1,-2.2 0.4,0.9 0.9,1.8 1.3,2.7 -0.2,0.1 -0.4,0.1 -0.6,0.2 -8.5,2.7 -12.8,10.3 -12.8,10.3 0,0 0,0 0,0 z m 11.6,5.2 c -3.7,0 -7.1,-1.3 -9.8,-3.4 -0.1,0 -0.1,-0.1 -0.2,-0.2 0.1,0.1 0.1,0.1 0.2,0.2 0.1,0.1 0.2,0.1 0.2,0.1 0,0 3,-6.5 12.3,-9.8 0,0 0.1,0 0.1,0 2.2,5.7 3.1,10.5 3.3,11.9 -1.8,0.8 -3.9,1.2 -6.1,1.2 z m 8.8,-2.7 c -0.2,-0.9 -1,-5.5 -3,-11.2 5.1,-0.8 9.4,0.6 9.8,0.7 -0.8,4.4 -3.3,8.2 -6.8,10.5 z m -4,-13.6 c -0.1,-0.3 -0.2,-0.5 -0.3,-0.8 -0.3,-0.8 -0.7,-1.5 -1,-2.3 6.2,-2.5 8.7,-6.2 8.7,-6.2 2.2,2.7 3.5,6.1 3.6,9.8 -0.3,-0.1 -5.6,-1.2 -11,-0.5 z"
   inkscape:connector-curvature="0"
   style="fill:#8e99a8" />
	<path
   id="Facebook"
   d="m 386.7,176.6 c 0,1.1 -0.9,2 -2,2 h -9.4 v -14.2 h 4.8 l 0.7,-5.5 h -5.5 v -3.5 c 0,-1.6 0.4,-2.7 2.7,-2.7 h 2.9 v -5 c -0.5,-0.1 -2.2,-0.2 -4.3,-0.2 -4.2,0 -7.1,2.6 -7.1,7.3 v 4.1 h -4.8 v 5.5 h 4.8 v 14.2 h -17.6 c -1.1,0 -2,-0.9 -2,-2 V 144 c 0,-1.1 0.9,-2 2,-2 h 32.7 c 1.1,0 2,0.9 2,2 v 32.6 z"
   inkscape:connector-curvature="0"
   style="fill:#8e99a8" />
	<g
   id="Google_x2B_">
		<path
   d="m 231.4,158.2 v 5.1 c 0,0 4.9,0 6.9,0 -1.1,3.3 -2.8,5.1 -6.9,5.1 -4.2,0 -7.5,-3.4 -7.5,-7.6 0,-4.2 3.3,-7.6 7.5,-7.6 2.2,0 3.7,0.8 5,1.9 1.1,-1.1 1,-1.2 3.6,-3.7 -2.3,-2.1 -5.3,-3.3 -8.6,-3.3 -7.1,0 -12.8,5.7 -12.8,12.8 0,7.1 5.7,12.8 12.8,12.8 10.6,0 13.2,-9.2 12.3,-15.4 h -12.3 z"
   id="path803"
   inkscape:connector-curvature="0"
   style="fill:#8e99a8" />
		<polygon
   points="259,158.5 254.5,158.5 254.5,154 251.4,154 251.4,158.5 246.8,158.5 246.8,161.6 251.4,161.6 251.4,166.2 254.5,166.2 254.5,161.6 259,161.6 "
   id="polygon805"
   style="fill:#8e99a8" />
	</g>
</g><g
     transform="translate(-279.61843,918.7895)"
     id="_x30_1-SINGLE-GREY-5"
     clip-path="url(#clipPath1209)"><path
       style="fill:#8e99a8"
       inkscape:connector-curvature="0"
       id="Vimeo-3"
       d="m 1153.1,145 c -5.1,-0.2 -8.5,2.7 -10.4,8.5 0.9,-0.4 1.8,-0.6 2.7,-0.6 1.9,0 2.7,1 2.5,3.1 -0.1,1.3 -0.9,3.1 -2.5,5.5 -1.5,2.4 -2.7,3.6 -3.5,3.6 -1,0 -1.9,-1.8 -2.7,-5.5 -0.3,-1.1 -0.8,-3.8 -1.5,-8.3 -0.7,-4.1 -2.4,-6 -5.3,-5.8 -1.2,0.1 -3,1.2 -5.4,3.3 -1.8,1.6 -3.5,3.1 -5.3,4.7 l 1.7,2.2 c 1.6,-1.1 2.6,-1.7 2.9,-1.7 1.3,0 2.4,2 3.5,5.9 1,3.6 2,7.2 3,10.7 1.5,3.9 3.3,5.8 5.4,5.8 3.5,0 7.7,-3.2 12.7,-9.6 4.8,-6.1 7.3,-10.9 7.5,-14.5 0.3,-4.7 -1.5,-7.1 -5.3,-7.3 z" /><path
       style="fill:#8e99a8"
       inkscape:connector-curvature="0"
       id="Instagram-5"
       d="m 1025.1,142.1 h -27.9 c -2.4,0 -4.4,1.9 -4.4,4.3 v 28 c 0,2.4 2,4.3 4.4,4.3 h 27.9 c 2.4,0 4.4,-1.9 4.4,-4.3 v -28 c -0.1,-2.3 -2,-4.3 -4.4,-4.3 z m -6,5.8 c 0,-0.6 0.5,-1.1 1.1,-1.1 h 3.4 c 0.6,0 1.1,0.5 1.1,1.1 v 3.4 c 0,0.6 -0.5,1.1 -1.1,1.1 h -3.4 c -0.6,0 -1.1,-0.5 -1.1,-1.1 z m -8,5.6 c 3.9,0 7.1,3.1 7.1,7 0,3.9 -3.2,7 -7.1,7 -3.9,0 -7,-3.1 -7,-7 0,-3.9 3.1,-7 7,-7 z m 14.9,20.7 c 0,0.6 -0.5,1.1 -1.1,1.1 h -27.5 c -0.6,0 -1.1,-0.5 -1.1,-1.1 V 157 h 4.6 c -0.6,0.9 -0.8,2.5 -0.8,3.5 0,6.1 5,11.1 11.2,11.1 6.2,0 11.2,-5 11.2,-11.1 0,-1 -0.1,-2.6 -0.9,-3.5 h 4.6 v 17.2 z" /><path
       style="fill:#8e99a8"
       inkscape:connector-curvature="0"
       id="Twitter-6"
       d="m 900.4,145.3 c -1.5,0.9 -3.1,1.6 -4.9,1.9 -1.4,-1.5 -3.4,-2.5 -5.6,-2.5 -4.2,0 -7.7,3.5 -7.7,7.9 0,0.6 0.1,1.2 0.2,1.8 -6.4,-0.3 -12,-3.5 -15.8,-8.2 -0.7,1.2 -1,2.5 -1,4 0,2.7 1.4,5.1 3.4,6.6 -1.3,0 -2.4,-0.4 -3.5,-1 v 0.1 c 0,3.8 2.6,7 6.2,7.7 -0.6,0.2 -1.3,0.3 -2,0.3 -0.5,0 -1,0 -1.4,-0.1 1,3.1 3.8,5.4 7.2,5.5 -2.6,2.1 -5.9,3.4 -9.5,3.4 -0.6,0 -1.2,0 -1.8,-0.1 3.4,2.2 7.4,3.5 11.8,3.5 14.1,0 21.9,-12 21.9,-22.4 0,-0.3 0,-0.7 0,-1 1.5,-1.1 2.8,-2.5 3.8,-4.1 -1.4,0.6 -2.9,1.1 -4.4,1.2 1.3,-1.1 2.5,-2.6 3.1,-4.5 z" /><g
       id="LinkedIn-2"><rect
         style="fill:#8e99a8"
         x="737.29999"
         y="154.8"
         width="7.1999998"
         height="22.799999"
         id="rect787-9" /><path
         style="fill:#8e99a8"
         inkscape:connector-curvature="0"
         d="m 764.1,154.6 c -4.1,0 -6.7,2.2 -7.2,3.8 v -3.6 h -8.1 c 0.1,1.9 0,22.8 0,22.8 h 8.1 v -12.3 c 0,-0.7 0,-1.4 0.2,-1.9 0.6,-1.4 1.7,-2.8 3.9,-2.8 2.8,0 4.1,2.1 4.1,5.2 v 11.8 h 8.2 v -12.7 c -0.1,-7 -4.1,-10.3 -9.2,-10.3 z"
         id="path789-1" /><path
         style="fill:#8e99a8"
         inkscape:connector-curvature="0"
         d="m 740.7,144.1 c -2.7,0 -4.4,1.7 -4.4,4 0,2.2 1.7,3.9 4.3,3.9 h 0.1 c 2.7,0 4.4,-1.7 4.4,-4 -0.1,-2.2 -1.7,-3.9 -4.4,-3.9 z"
         id="path791-2" /></g><g
       id="Behance-7"><path
         style="fill:#8e99a8"
         inkscape:connector-curvature="0"
         d="m 622.4,159.5 c 0.8,-0.4 1.3,-0.8 1.7,-1.3 0.7,-0.8 1,-1.9 1,-3.3 0,-1.3 -0.3,-2.5 -1,-3.4 -1.2,-1.5 -3.1,-2.3 -5.9,-2.4 h -10.9 v 22.3 h 10.2 c 1.2,0 2.2,-0.1 3.2,-0.3 1,-0.2 1.8,-0.6 2.6,-1.1 0.6,-0.5 1.2,-1.1 1.6,-1.8 0.7,-1 1,-2.2 1,-3.6 0,-1.3 -0.3,-2.4 -0.9,-3.3 -0.6,-0.7 -1.4,-1.4 -2.6,-1.8 z m -10.5,-6.4 h 4.9 c 1.1,0 2,0.1 2.7,0.3 0.8,0.3 1.2,1 1.2,2.1 0,0.9 -0.3,1.6 -0.9,2 -0.6,0.4 -1.4,0.6 -2.4,0.6 h -5.5 z m 7.8,14.1 c -0.5,0.3 -1.3,0.4 -2.3,0.4 h -5.5 v -6 h 5.6 c 1,0 1.7,0.1 2.3,0.4 1,0.4 1.4,1.2 1.4,2.4 -0.1,1.4 -0.6,2.4 -1.5,2.8 z"
         id="path794-0" /><rect
         style="fill:#8e99a8"
         x="630.79999"
         y="150.2"
         width="9.6999998"
         height="2.8"
         id="rect796-9" /><path
         style="fill:#8e99a8"
         inkscape:connector-curvature="0"
         d="m 642.5,157.8 c -0.8,-1.1 -1.7,-1.9 -2.9,-2.4 -1.2,-0.5 -2.5,-0.8 -3.9,-0.8 -2.5,0 -4.4,0.8 -6,2.3 -1.5,1.5 -2.3,3.7 -2.3,6.6 0,3.1 0.8,5.3 2.6,6.6 1.7,1.4 3.7,2 5.9,2 2.7,0 4.8,-0.8 6.3,-2.4 1,-1 1.5,-2 1.6,-3 h -4.5 c -0.3,0.5 -0.6,0.9 -0.9,1.1 -0.6,0.5 -1.4,0.8 -2.4,0.8 -0.9,0 -1.7,-0.2 -2.4,-0.6 -1.1,-0.7 -1.7,-1.8 -1.8,-3.5 H 644 c 0,-1.4 0,-2.5 -0.1,-3.3 -0.3,-1.3 -0.7,-2.4 -1.4,-3.4 z m -10.6,3.8 c 0.2,-1.1 0.5,-1.9 1.2,-2.6 0.6,-0.6 1.5,-0.9 2.6,-0.9 1,0 1.9,0.3 2.6,0.9 0.7,0.6 1.1,1.5 1.2,2.6 z"
         id="path798-3" /></g><path
       style="fill:#8e99a8"
       inkscape:connector-curvature="0"
       id="Dribbble-6"
       d="m 514,153.3 c -0.5,-1.1 -1,-2.1 -1.7,-3.1 -0.7,-1 -1.4,-1.9 -2.2,-2.7 -0.8,-0.8 -1.7,-1.6 -2.7,-2.2 -1,-0.7 -2,-1.2 -3.1,-1.7 -1.1,-0.5 -2.3,-0.8 -3.4,-1.1 -1.2,-0.2 -2.4,-0.4 -3.7,-0.4 -1.2,0 -2.5,0.1 -3.7,0.4 -1.2,0.2 -2.3,0.6 -3.4,1.1 -1.1,0.5 -2.1,1 -3.1,1.7 -1,0.7 -1.9,1.4 -2.7,2.2 -0.8,0.8 -1.6,1.7 -2.2,2.7 -0.7,1 -1.2,2 -1.7,3.1 -0.5,1.1 -0.8,2.3 -1.1,3.4 -0.2,1.2 -0.4,2.4 -0.4,3.7 0,1.2 0.1,2.5 0.4,3.7 0.2,1.2 0.6,2.3 1.1,3.4 0.5,1.1 1,2.1 1.7,3.1 0.7,1 1.4,1.9 2.2,2.7 0.8,0.8 1.7,1.6 2.7,2.2 1,0.7 2,1.2 3.1,1.7 1.1,0.5 2.3,0.8 3.4,1.1 1.2,0.3 2.4,0.4 3.7,0.4 1.2,0 2.5,-0.1 3.7,-0.4 1.2,-0.2 2.3,-0.6 3.4,-1.1 1.1,-0.5 2.1,-1 3.1,-1.7 1,-0.7 1.9,-1.4 2.7,-2.2 0.8,-0.8 1.6,-1.7 2.2,-2.7 0.7,-1 1.2,-2 1.7,-3.1 0.5,-1.1 0.8,-2.3 1.1,-3.4 0.2,-1.2 0.4,-2.4 0.4,-3.7 0,-1.2 -0.1,-2.5 -0.4,-3.7 -0.3,-1.1 -0.6,-2.3 -1.1,-3.4 z m -16.9,-8.5 c 4,0 7.6,1.5 10.3,3.9 0,0.1 -2.3,3.5 -8.2,5.7 -2.7,-4.9 -5.6,-8.8 -5.9,-9.1 1.3,-0.3 2.6,-0.5 3.8,-0.5 z m -3.7,0.4 c 0,0.1 0,0.1 0,0 0,0.1 0,0.1 0,0 -0.1,0.1 0,0.1 0,0 z m -3,1.1 c 0.2,0.3 3.1,4.2 5.8,9 -7.5,2 -14,1.9 -14.5,1.9 1.1,-4.8 4.4,-8.8 8.7,-10.9 z m -4.9,24.6 c -2.5,-2.8 -4,-6.4 -4,-10.5 0,-0.2 0,-0.3 0,-0.5 0.3,0 8,0.2 16.1,-2.2 0.4,0.9 0.9,1.8 1.3,2.7 -0.2,0.1 -0.4,0.1 -0.6,0.2 -8.5,2.7 -12.8,10.3 -12.8,10.3 0,0 0,0 0,0 z m 11.6,5.2 c -3.7,0 -7.1,-1.3 -9.8,-3.4 -0.1,0 -0.1,-0.1 -0.2,-0.2 0.1,0.1 0.1,0.1 0.2,0.2 0.1,0.1 0.2,0.1 0.2,0.1 0,0 3,-6.5 12.3,-9.8 0,0 0.1,0 0.1,0 2.2,5.7 3.1,10.5 3.3,11.9 -1.8,0.8 -3.9,1.2 -6.1,1.2 z m 8.8,-2.7 c -0.2,-0.9 -1,-5.5 -3,-11.2 5.1,-0.8 9.4,0.6 9.8,0.7 -0.8,4.4 -3.3,8.2 -6.8,10.5 z m -4,-13.6 c -0.1,-0.3 -0.2,-0.5 -0.3,-0.8 -0.3,-0.8 -0.7,-1.5 -1,-2.3 6.2,-2.5 8.7,-6.2 8.7,-6.2 2.2,2.7 3.5,6.1 3.6,9.8 -0.3,-0.1 -5.6,-1.2 -11,-0.5 z" /><path
       style="fill:#8e99a8"
       inkscape:connector-curvature="0"
       id="Facebook-0"
       d="m 386.7,176.6 c 0,1.1 -0.9,2 -2,2 h -9.4 v -14.2 h 4.8 l 0.7,-5.5 h -5.5 v -3.5 c 0,-1.6 0.4,-2.7 2.7,-2.7 h 2.9 v -5 c -0.5,-0.1 -2.2,-0.2 -4.3,-0.2 -4.2,0 -7.1,2.6 -7.1,7.3 v 4.1 h -4.8 v 5.5 h 4.8 v 14.2 h -17.6 c -1.1,0 -2,-0.9 -2,-2 V 144 c 0,-1.1 0.9,-2 2,-2 h 32.7 c 1.1,0 2,0.9 2,2 v 32.6 z" /><g
       id="Google_x2B_-6"><path
         style="fill:#8e99a8"
         inkscape:connector-curvature="0"
         d="m 231.4,158.2 v 5.1 c 0,0 4.9,0 6.9,0 -1.1,3.3 -2.8,5.1 -6.9,5.1 -4.2,0 -7.5,-3.4 -7.5,-7.6 0,-4.2 3.3,-7.6 7.5,-7.6 2.2,0 3.7,0.8 5,1.9 1.1,-1.1 1,-1.2 3.6,-3.7 -2.3,-2.1 -5.3,-3.3 -8.6,-3.3 -7.1,0 -12.8,5.7 -12.8,12.8 0,7.1 5.7,12.8 12.8,12.8 10.6,0 13.2,-9.2 12.3,-15.4 h -12.3 z"
         id="path803-2" /><polygon
         style="fill:#8e99a8"
         points="251.4,161.6 251.4,166.2 254.5,166.2 254.5,161.6 259,161.6 259,158.5 254.5,158.5 254.5,154 251.4,154 251.4,158.5 246.8,158.5 246.8,161.6 "
         id="polygon805-6" /></g></g><g
     transform="translate(-729.04602,918.36492)"
     id="_x30_1-SINGLE-GREY-5-7"
     clip-path="url(#clipPath1215)"><path
       style="fill:#8e99a8"
       inkscape:connector-curvature="0"
       id="Vimeo-3-9"
       d="m 1153.1,145 c -5.1,-0.2 -8.5,2.7 -10.4,8.5 0.9,-0.4 1.8,-0.6 2.7,-0.6 1.9,0 2.7,1 2.5,3.1 -0.1,1.3 -0.9,3.1 -2.5,5.5 -1.5,2.4 -2.7,3.6 -3.5,3.6 -1,0 -1.9,-1.8 -2.7,-5.5 -0.3,-1.1 -0.8,-3.8 -1.5,-8.3 -0.7,-4.1 -2.4,-6 -5.3,-5.8 -1.2,0.1 -3,1.2 -5.4,3.3 -1.8,1.6 -3.5,3.1 -5.3,4.7 l 1.7,2.2 c 1.6,-1.1 2.6,-1.7 2.9,-1.7 1.3,0 2.4,2 3.5,5.9 1,3.6 2,7.2 3,10.7 1.5,3.9 3.3,5.8 5.4,5.8 3.5,0 7.7,-3.2 12.7,-9.6 4.8,-6.1 7.3,-10.9 7.5,-14.5 0.3,-4.7 -1.5,-7.1 -5.3,-7.3 z" /><path
       style="fill:#8e99a8"
       inkscape:connector-curvature="0"
       id="Instagram-5-2"
       d="m 1025.1,142.1 h -27.9 c -2.4,0 -4.4,1.9 -4.4,4.3 v 28 c 0,2.4 2,4.3 4.4,4.3 h 27.9 c 2.4,0 4.4,-1.9 4.4,-4.3 v -28 c -0.1,-2.3 -2,-4.3 -4.4,-4.3 z m -6,5.8 c 0,-0.6 0.5,-1.1 1.1,-1.1 h 3.4 c 0.6,0 1.1,0.5 1.1,1.1 v 3.4 c 0,0.6 -0.5,1.1 -1.1,1.1 h -3.4 c -0.6,0 -1.1,-0.5 -1.1,-1.1 z m -8,5.6 c 3.9,0 7.1,3.1 7.1,7 0,3.9 -3.2,7 -7.1,7 -3.9,0 -7,-3.1 -7,-7 0,-3.9 3.1,-7 7,-7 z m 14.9,20.7 c 0,0.6 -0.5,1.1 -1.1,1.1 h -27.5 c -0.6,0 -1.1,-0.5 -1.1,-1.1 V 157 h 4.6 c -0.6,0.9 -0.8,2.5 -0.8,3.5 0,6.1 5,11.1 11.2,11.1 6.2,0 11.2,-5 11.2,-11.1 0,-1 -0.1,-2.6 -0.9,-3.5 h 4.6 v 17.2 z" /><path
       style="fill:#8e99a8"
       inkscape:connector-curvature="0"
       id="Twitter-6-0"
       d="m 900.4,145.3 c -1.5,0.9 -3.1,1.6 -4.9,1.9 -1.4,-1.5 -3.4,-2.5 -5.6,-2.5 -4.2,0 -7.7,3.5 -7.7,7.9 0,0.6 0.1,1.2 0.2,1.8 -6.4,-0.3 -12,-3.5 -15.8,-8.2 -0.7,1.2 -1,2.5 -1,4 0,2.7 1.4,5.1 3.4,6.6 -1.3,0 -2.4,-0.4 -3.5,-1 v 0.1 c 0,3.8 2.6,7 6.2,7.7 -0.6,0.2 -1.3,0.3 -2,0.3 -0.5,0 -1,0 -1.4,-0.1 1,3.1 3.8,5.4 7.2,5.5 -2.6,2.1 -5.9,3.4 -9.5,3.4 -0.6,0 -1.2,0 -1.8,-0.1 3.4,2.2 7.4,3.5 11.8,3.5 14.1,0 21.9,-12 21.9,-22.4 0,-0.3 0,-0.7 0,-1 1.5,-1.1 2.8,-2.5 3.8,-4.1 -1.4,0.6 -2.9,1.1 -4.4,1.2 1.3,-1.1 2.5,-2.6 3.1,-4.5 z" /><g
       id="LinkedIn-2-2"><rect
         style="fill:#8e99a8"
         x="737.29999"
         y="154.8"
         width="7.1999998"
         height="22.799999"
         id="rect787-9-3" /><path
         style="fill:#8e99a8"
         inkscape:connector-curvature="0"
         d="m 764.1,154.6 c -4.1,0 -6.7,2.2 -7.2,3.8 v -3.6 h -8.1 c 0.1,1.9 0,22.8 0,22.8 h 8.1 v -12.3 c 0,-0.7 0,-1.4 0.2,-1.9 0.6,-1.4 1.7,-2.8 3.9,-2.8 2.8,0 4.1,2.1 4.1,5.2 v 11.8 h 8.2 v -12.7 c -0.1,-7 -4.1,-10.3 -9.2,-10.3 z"
         id="path789-1-7" /><path
         style="fill:#8e99a8"
         inkscape:connector-curvature="0"
         d="m 740.7,144.1 c -2.7,0 -4.4,1.7 -4.4,4 0,2.2 1.7,3.9 4.3,3.9 h 0.1 c 2.7,0 4.4,-1.7 4.4,-4 -0.1,-2.2 -1.7,-3.9 -4.4,-3.9 z"
         id="path791-2-5" /></g><g
       id="Behance-7-9"><path
         style="fill:#8e99a8"
         inkscape:connector-curvature="0"
         d="m 622.4,159.5 c 0.8,-0.4 1.3,-0.8 1.7,-1.3 0.7,-0.8 1,-1.9 1,-3.3 0,-1.3 -0.3,-2.5 -1,-3.4 -1.2,-1.5 -3.1,-2.3 -5.9,-2.4 h -10.9 v 22.3 h 10.2 c 1.2,0 2.2,-0.1 3.2,-0.3 1,-0.2 1.8,-0.6 2.6,-1.1 0.6,-0.5 1.2,-1.1 1.6,-1.8 0.7,-1 1,-2.2 1,-3.6 0,-1.3 -0.3,-2.4 -0.9,-3.3 -0.6,-0.7 -1.4,-1.4 -2.6,-1.8 z m -10.5,-6.4 h 4.9 c 1.1,0 2,0.1 2.7,0.3 0.8,0.3 1.2,1 1.2,2.1 0,0.9 -0.3,1.6 -0.9,2 -0.6,0.4 -1.4,0.6 -2.4,0.6 h -5.5 z m 7.8,14.1 c -0.5,0.3 -1.3,0.4 -2.3,0.4 h -5.5 v -6 h 5.6 c 1,0 1.7,0.1 2.3,0.4 1,0.4 1.4,1.2 1.4,2.4 -0.1,1.4 -0.6,2.4 -1.5,2.8 z"
         id="path794-0-2" /><rect
         style="fill:#8e99a8"
         x="630.79999"
         y="150.2"
         width="9.6999998"
         height="2.8"
         id="rect796-9-2" /><path
         style="fill:#8e99a8"
         inkscape:connector-curvature="0"
         d="m 642.5,157.8 c -0.8,-1.1 -1.7,-1.9 -2.9,-2.4 -1.2,-0.5 -2.5,-0.8 -3.9,-0.8 -2.5,0 -4.4,0.8 -6,2.3 -1.5,1.5 -2.3,3.7 -2.3,6.6 0,3.1 0.8,5.3 2.6,6.6 1.7,1.4 3.7,2 5.9,2 2.7,0 4.8,-0.8 6.3,-2.4 1,-1 1.5,-2 1.6,-3 h -4.5 c -0.3,0.5 -0.6,0.9 -0.9,1.1 -0.6,0.5 -1.4,0.8 -2.4,0.8 -0.9,0 -1.7,-0.2 -2.4,-0.6 -1.1,-0.7 -1.7,-1.8 -1.8,-3.5 H 644 c 0,-1.4 0,-2.5 -0.1,-3.3 -0.3,-1.3 -0.7,-2.4 -1.4,-3.4 z m -10.6,3.8 c 0.2,-1.1 0.5,-1.9 1.2,-2.6 0.6,-0.6 1.5,-0.9 2.6,-0.9 1,0 1.9,0.3 2.6,0.9 0.7,0.6 1.1,1.5 1.2,2.6 z"
         id="path798-3-8" /></g><path
       style="fill:#8e99a8"
       inkscape:connector-curvature="0"
       id="Dribbble-6-9"
       d="m 514,153.3 c -0.5,-1.1 -1,-2.1 -1.7,-3.1 -0.7,-1 -1.4,-1.9 -2.2,-2.7 -0.8,-0.8 -1.7,-1.6 -2.7,-2.2 -1,-0.7 -2,-1.2 -3.1,-1.7 -1.1,-0.5 -2.3,-0.8 -3.4,-1.1 -1.2,-0.2 -2.4,-0.4 -3.7,-0.4 -1.2,0 -2.5,0.1 -3.7,0.4 -1.2,0.2 -2.3,0.6 -3.4,1.1 -1.1,0.5 -2.1,1 -3.1,1.7 -1,0.7 -1.9,1.4 -2.7,2.2 -0.8,0.8 -1.6,1.7 -2.2,2.7 -0.7,1 -1.2,2 -1.7,3.1 -0.5,1.1 -0.8,2.3 -1.1,3.4 -0.2,1.2 -0.4,2.4 -0.4,3.7 0,1.2 0.1,2.5 0.4,3.7 0.2,1.2 0.6,2.3 1.1,3.4 0.5,1.1 1,2.1 1.7,3.1 0.7,1 1.4,1.9 2.2,2.7 0.8,0.8 1.7,1.6 2.7,2.2 1,0.7 2,1.2 3.1,1.7 1.1,0.5 2.3,0.8 3.4,1.1 1.2,0.3 2.4,0.4 3.7,0.4 1.2,0 2.5,-0.1 3.7,-0.4 1.2,-0.2 2.3,-0.6 3.4,-1.1 1.1,-0.5 2.1,-1 3.1,-1.7 1,-0.7 1.9,-1.4 2.7,-2.2 0.8,-0.8 1.6,-1.7 2.2,-2.7 0.7,-1 1.2,-2 1.7,-3.1 0.5,-1.1 0.8,-2.3 1.1,-3.4 0.2,-1.2 0.4,-2.4 0.4,-3.7 0,-1.2 -0.1,-2.5 -0.4,-3.7 -0.3,-1.1 -0.6,-2.3 -1.1,-3.4 z m -16.9,-8.5 c 4,0 7.6,1.5 10.3,3.9 0,0.1 -2.3,3.5 -8.2,5.7 -2.7,-4.9 -5.6,-8.8 -5.9,-9.1 1.3,-0.3 2.6,-0.5 3.8,-0.5 z m -3.7,0.4 c 0,0.1 0,0.1 0,0 0,0.1 0,0.1 0,0 -0.1,0.1 0,0.1 0,0 z m -3,1.1 c 0.2,0.3 3.1,4.2 5.8,9 -7.5,2 -14,1.9 -14.5,1.9 1.1,-4.8 4.4,-8.8 8.7,-10.9 z m -4.9,24.6 c -2.5,-2.8 -4,-6.4 -4,-10.5 0,-0.2 0,-0.3 0,-0.5 0.3,0 8,0.2 16.1,-2.2 0.4,0.9 0.9,1.8 1.3,2.7 -0.2,0.1 -0.4,0.1 -0.6,0.2 -8.5,2.7 -12.8,10.3 -12.8,10.3 0,0 0,0 0,0 z m 11.6,5.2 c -3.7,0 -7.1,-1.3 -9.8,-3.4 -0.1,0 -0.1,-0.1 -0.2,-0.2 0.1,0.1 0.1,0.1 0.2,0.2 0.1,0.1 0.2,0.1 0.2,0.1 0,0 3,-6.5 12.3,-9.8 0,0 0.1,0 0.1,0 2.2,5.7 3.1,10.5 3.3,11.9 -1.8,0.8 -3.9,1.2 -6.1,1.2 z m 8.8,-2.7 c -0.2,-0.9 -1,-5.5 -3,-11.2 5.1,-0.8 9.4,0.6 9.8,0.7 -0.8,4.4 -3.3,8.2 -6.8,10.5 z m -4,-13.6 c -0.1,-0.3 -0.2,-0.5 -0.3,-0.8 -0.3,-0.8 -0.7,-1.5 -1,-2.3 6.2,-2.5 8.7,-6.2 8.7,-6.2 2.2,2.7 3.5,6.1 3.6,9.8 -0.3,-0.1 -5.6,-1.2 -11,-0.5 z" /><path
       style="fill:#8e99a8"
       inkscape:connector-curvature="0"
       id="Facebook-0-7"
       d="m 386.7,176.6 c 0,1.1 -0.9,2 -2,2 h -9.4 v -14.2 h 4.8 l 0.7,-5.5 h -5.5 v -3.5 c 0,-1.6 0.4,-2.7 2.7,-2.7 h 2.9 v -5 c -0.5,-0.1 -2.2,-0.2 -4.3,-0.2 -4.2,0 -7.1,2.6 -7.1,7.3 v 4.1 h -4.8 v 5.5 h 4.8 v 14.2 h -17.6 c -1.1,0 -2,-0.9 -2,-2 V 144 c 0,-1.1 0.9,-2 2,-2 h 32.7 c 1.1,0 2,0.9 2,2 v 32.6 z" /><g
       id="Google_x2B_-6-3"><path
         style="fill:#8e99a8"
         inkscape:connector-curvature="0"
         d="m 231.4,158.2 v 5.1 c 0,0 4.9,0 6.9,0 -1.1,3.3 -2.8,5.1 -6.9,5.1 -4.2,0 -7.5,-3.4 -7.5,-7.6 0,-4.2 3.3,-7.6 7.5,-7.6 2.2,0 3.7,0.8 5,1.9 1.1,-1.1 1,-1.2 3.6,-3.7 -2.3,-2.1 -5.3,-3.3 -8.6,-3.3 -7.1,0 -12.8,5.7 -12.8,12.8 0,7.1 5.7,12.8 12.8,12.8 10.6,0 13.2,-9.2 12.3,-15.4 h -12.3 z"
         id="path803-2-6" /><polygon
         style="fill:#8e99a8"
         points="254.5,166.2 254.5,161.6 259,161.6 259,158.5 254.5,158.5 254.5,154 251.4,154 251.4,158.5 246.8,158.5 246.8,161.6 251.4,161.6 251.4,166.2 "
         id="polygon805-6-1" /></g></g><g
     transform="translate(-800.61843,919.4895)"
     id="_x30_1-SINGLE-GREY-5-7-2"
     clip-path="url(#clipPath1221)"><path
       style="fill:#8e99a8"
       inkscape:connector-curvature="0"
       id="Vimeo-3-9-9"
       d="m 1153.1,145 c -5.1,-0.2 -8.5,2.7 -10.4,8.5 0.9,-0.4 1.8,-0.6 2.7,-0.6 1.9,0 2.7,1 2.5,3.1 -0.1,1.3 -0.9,3.1 -2.5,5.5 -1.5,2.4 -2.7,3.6 -3.5,3.6 -1,0 -1.9,-1.8 -2.7,-5.5 -0.3,-1.1 -0.8,-3.8 -1.5,-8.3 -0.7,-4.1 -2.4,-6 -5.3,-5.8 -1.2,0.1 -3,1.2 -5.4,3.3 -1.8,1.6 -3.5,3.1 -5.3,4.7 l 1.7,2.2 c 1.6,-1.1 2.6,-1.7 2.9,-1.7 1.3,0 2.4,2 3.5,5.9 1,3.6 2,7.2 3,10.7 1.5,3.9 3.3,5.8 5.4,5.8 3.5,0 7.7,-3.2 12.7,-9.6 4.8,-6.1 7.3,-10.9 7.5,-14.5 0.3,-4.7 -1.5,-7.1 -5.3,-7.3 z" /><path
       style="fill:#8e99a8"
       inkscape:connector-curvature="0"
       id="Instagram-5-2-3"
       d="m 1025.1,142.1 h -27.9 c -2.4,0 -4.4,1.9 -4.4,4.3 v 28 c 0,2.4 2,4.3 4.4,4.3 h 27.9 c 2.4,0 4.4,-1.9 4.4,-4.3 v -28 c -0.1,-2.3 -2,-4.3 -4.4,-4.3 z m -6,5.8 c 0,-0.6 0.5,-1.1 1.1,-1.1 h 3.4 c 0.6,0 1.1,0.5 1.1,1.1 v 3.4 c 0,0.6 -0.5,1.1 -1.1,1.1 h -3.4 c -0.6,0 -1.1,-0.5 -1.1,-1.1 z m -8,5.6 c 3.9,0 7.1,3.1 7.1,7 0,3.9 -3.2,7 -7.1,7 -3.9,0 -7,-3.1 -7,-7 0,-3.9 3.1,-7 7,-7 z m 14.9,20.7 c 0,0.6 -0.5,1.1 -1.1,1.1 h -27.5 c -0.6,0 -1.1,-0.5 -1.1,-1.1 V 157 h 4.6 c -0.6,0.9 -0.8,2.5 -0.8,3.5 0,6.1 5,11.1 11.2,11.1 6.2,0 11.2,-5 11.2,-11.1 0,-1 -0.1,-2.6 -0.9,-3.5 h 4.6 v 17.2 z" /><path
       style="fill:#8e99a8"
       inkscape:connector-curvature="0"
       id="Twitter-6-0-1"
       d="m 900.4,145.3 c -1.5,0.9 -3.1,1.6 -4.9,1.9 -1.4,-1.5 -3.4,-2.5 -5.6,-2.5 -4.2,0 -7.7,3.5 -7.7,7.9 0,0.6 0.1,1.2 0.2,1.8 -6.4,-0.3 -12,-3.5 -15.8,-8.2 -0.7,1.2 -1,2.5 -1,4 0,2.7 1.4,5.1 3.4,6.6 -1.3,0 -2.4,-0.4 -3.5,-1 v 0.1 c 0,3.8 2.6,7 6.2,7.7 -0.6,0.2 -1.3,0.3 -2,0.3 -0.5,0 -1,0 -1.4,-0.1 1,3.1 3.8,5.4 7.2,5.5 -2.6,2.1 -5.9,3.4 -9.5,3.4 -0.6,0 -1.2,0 -1.8,-0.1 3.4,2.2 7.4,3.5 11.8,3.5 14.1,0 21.9,-12 21.9,-22.4 0,-0.3 0,-0.7 0,-1 1.5,-1.1 2.8,-2.5 3.8,-4.1 -1.4,0.6 -2.9,1.1 -4.4,1.2 1.3,-1.1 2.5,-2.6 3.1,-4.5 z" /><g
       id="LinkedIn-2-2-9"><rect
         style="fill:#8e99a8"
         x="737.29999"
         y="154.8"
         width="7.1999998"
         height="22.799999"
         id="rect787-9-3-4" /><path
         style="fill:#8e99a8"
         inkscape:connector-curvature="0"
         d="m 764.1,154.6 c -4.1,0 -6.7,2.2 -7.2,3.8 v -3.6 h -8.1 c 0.1,1.9 0,22.8 0,22.8 h 8.1 v -12.3 c 0,-0.7 0,-1.4 0.2,-1.9 0.6,-1.4 1.7,-2.8 3.9,-2.8 2.8,0 4.1,2.1 4.1,5.2 v 11.8 h 8.2 v -12.7 c -0.1,-7 -4.1,-10.3 -9.2,-10.3 z"
         id="path789-1-7-7" /><path
         style="fill:#8e99a8"
         inkscape:connector-curvature="0"
         d="m 740.7,144.1 c -2.7,0 -4.4,1.7 -4.4,4 0,2.2 1.7,3.9 4.3,3.9 h 0.1 c 2.7,0 4.4,-1.7 4.4,-4 -0.1,-2.2 -1.7,-3.9 -4.4,-3.9 z"
         id="path791-2-5-8" /></g><g
       id="Behance-7-9-4"><path
         style="fill:#8e99a8"
         inkscape:connector-curvature="0"
         d="m 622.4,159.5 c 0.8,-0.4 1.3,-0.8 1.7,-1.3 0.7,-0.8 1,-1.9 1,-3.3 0,-1.3 -0.3,-2.5 -1,-3.4 -1.2,-1.5 -3.1,-2.3 -5.9,-2.4 h -10.9 v 22.3 h 10.2 c 1.2,0 2.2,-0.1 3.2,-0.3 1,-0.2 1.8,-0.6 2.6,-1.1 0.6,-0.5 1.2,-1.1 1.6,-1.8 0.7,-1 1,-2.2 1,-3.6 0,-1.3 -0.3,-2.4 -0.9,-3.3 -0.6,-0.7 -1.4,-1.4 -2.6,-1.8 z m -10.5,-6.4 h 4.9 c 1.1,0 2,0.1 2.7,0.3 0.8,0.3 1.2,1 1.2,2.1 0,0.9 -0.3,1.6 -0.9,2 -0.6,0.4 -1.4,0.6 -2.4,0.6 h -5.5 z m 7.8,14.1 c -0.5,0.3 -1.3,0.4 -2.3,0.4 h -5.5 v -6 h 5.6 c 1,0 1.7,0.1 2.3,0.4 1,0.4 1.4,1.2 1.4,2.4 -0.1,1.4 -0.6,2.4 -1.5,2.8 z"
         id="path794-0-2-5" /><rect
         style="fill:#8e99a8"
         x="630.79999"
         y="150.2"
         width="9.6999998"
         height="2.8"
         id="rect796-9-2-0" /><path
         style="fill:#8e99a8"
         inkscape:connector-curvature="0"
         d="m 642.5,157.8 c -0.8,-1.1 -1.7,-1.9 -2.9,-2.4 -1.2,-0.5 -2.5,-0.8 -3.9,-0.8 -2.5,0 -4.4,0.8 -6,2.3 -1.5,1.5 -2.3,3.7 -2.3,6.6 0,3.1 0.8,5.3 2.6,6.6 1.7,1.4 3.7,2 5.9,2 2.7,0 4.8,-0.8 6.3,-2.4 1,-1 1.5,-2 1.6,-3 h -4.5 c -0.3,0.5 -0.6,0.9 -0.9,1.1 -0.6,0.5 -1.4,0.8 -2.4,0.8 -0.9,0 -1.7,-0.2 -2.4,-0.6 -1.1,-0.7 -1.7,-1.8 -1.8,-3.5 H 644 c 0,-1.4 0,-2.5 -0.1,-3.3 -0.3,-1.3 -0.7,-2.4 -1.4,-3.4 z m -10.6,3.8 c 0.2,-1.1 0.5,-1.9 1.2,-2.6 0.6,-0.6 1.5,-0.9 2.6,-0.9 1,0 1.9,0.3 2.6,0.9 0.7,0.6 1.1,1.5 1.2,2.6 z"
         id="path798-3-8-3" /></g><path
       style="fill:#8e99a8"
       inkscape:connector-curvature="0"
       id="Dribbble-6-9-6"
       d="m 514,153.3 c -0.5,-1.1 -1,-2.1 -1.7,-3.1 -0.7,-1 -1.4,-1.9 -2.2,-2.7 -0.8,-0.8 -1.7,-1.6 -2.7,-2.2 -1,-0.7 -2,-1.2 -3.1,-1.7 -1.1,-0.5 -2.3,-0.8 -3.4,-1.1 -1.2,-0.2 -2.4,-0.4 -3.7,-0.4 -1.2,0 -2.5,0.1 -3.7,0.4 -1.2,0.2 -2.3,0.6 -3.4,1.1 -1.1,0.5 -2.1,1 -3.1,1.7 -1,0.7 -1.9,1.4 -2.7,2.2 -0.8,0.8 -1.6,1.7 -2.2,2.7 -0.7,1 -1.2,2 -1.7,3.1 -0.5,1.1 -0.8,2.3 -1.1,3.4 -0.2,1.2 -0.4,2.4 -0.4,3.7 0,1.2 0.1,2.5 0.4,3.7 0.2,1.2 0.6,2.3 1.1,3.4 0.5,1.1 1,2.1 1.7,3.1 0.7,1 1.4,1.9 2.2,2.7 0.8,0.8 1.7,1.6 2.7,2.2 1,0.7 2,1.2 3.1,1.7 1.1,0.5 2.3,0.8 3.4,1.1 1.2,0.3 2.4,0.4 3.7,0.4 1.2,0 2.5,-0.1 3.7,-0.4 1.2,-0.2 2.3,-0.6 3.4,-1.1 1.1,-0.5 2.1,-1 3.1,-1.7 1,-0.7 1.9,-1.4 2.7,-2.2 0.8,-0.8 1.6,-1.7 2.2,-2.7 0.7,-1 1.2,-2 1.7,-3.1 0.5,-1.1 0.8,-2.3 1.1,-3.4 0.2,-1.2 0.4,-2.4 0.4,-3.7 0,-1.2 -0.1,-2.5 -0.4,-3.7 -0.3,-1.1 -0.6,-2.3 -1.1,-3.4 z m -16.9,-8.5 c 4,0 7.6,1.5 10.3,3.9 0,0.1 -2.3,3.5 -8.2,5.7 -2.7,-4.9 -5.6,-8.8 -5.9,-9.1 1.3,-0.3 2.6,-0.5 3.8,-0.5 z m -3.7,0.4 c 0,0.1 0,0.1 0,0 0,0.1 0,0.1 0,0 -0.1,0.1 0,0.1 0,0 z m -3,1.1 c 0.2,0.3 3.1,4.2 5.8,9 -7.5,2 -14,1.9 -14.5,1.9 1.1,-4.8 4.4,-8.8 8.7,-10.9 z m -4.9,24.6 c -2.5,-2.8 -4,-6.4 -4,-10.5 0,-0.2 0,-0.3 0,-0.5 0.3,0 8,0.2 16.1,-2.2 0.4,0.9 0.9,1.8 1.3,2.7 -0.2,0.1 -0.4,0.1 -0.6,0.2 -8.5,2.7 -12.8,10.3 -12.8,10.3 0,0 0,0 0,0 z m 11.6,5.2 c -3.7,0 -7.1,-1.3 -9.8,-3.4 -0.1,0 -0.1,-0.1 -0.2,-0.2 0.1,0.1 0.1,0.1 0.2,0.2 0.1,0.1 0.2,0.1 0.2,0.1 0,0 3,-6.5 12.3,-9.8 0,0 0.1,0 0.1,0 2.2,5.7 3.1,10.5 3.3,11.9 -1.8,0.8 -3.9,1.2 -6.1,1.2 z m 8.8,-2.7 c -0.2,-0.9 -1,-5.5 -3,-11.2 5.1,-0.8 9.4,0.6 9.8,0.7 -0.8,4.4 -3.3,8.2 -6.8,10.5 z m -4,-13.6 c -0.1,-0.3 -0.2,-0.5 -0.3,-0.8 -0.3,-0.8 -0.7,-1.5 -1,-2.3 6.2,-2.5 8.7,-6.2 8.7,-6.2 2.2,2.7 3.5,6.1 3.6,9.8 -0.3,-0.1 -5.6,-1.2 -11,-0.5 z" /><path
       style="fill:#8e99a8"
       inkscape:connector-curvature="0"
       id="Facebook-0-7-1"
       d="m 386.7,176.6 c 0,1.1 -0.9,2 -2,2 h -9.4 v -14.2 h 4.8 l 0.7,-5.5 h -5.5 v -3.5 c 0,-1.6 0.4,-2.7 2.7,-2.7 h 2.9 v -5 c -0.5,-0.1 -2.2,-0.2 -4.3,-0.2 -4.2,0 -7.1,2.6 -7.1,7.3 v 4.1 h -4.8 v 5.5 h 4.8 v 14.2 h -17.6 c -1.1,0 -2,-0.9 -2,-2 V 144 c 0,-1.1 0.9,-2 2,-2 h 32.7 c 1.1,0 2,0.9 2,2 v 32.6 z" /><g
       id="Google_x2B_-6-3-0"><path
         style="fill:#8e99a8"
         inkscape:connector-curvature="0"
         d="m 231.4,158.2 v 5.1 c 0,0 4.9,0 6.9,0 -1.1,3.3 -2.8,5.1 -6.9,5.1 -4.2,0 -7.5,-3.4 -7.5,-7.6 0,-4.2 3.3,-7.6 7.5,-7.6 2.2,0 3.7,0.8 5,1.9 1.1,-1.1 1,-1.2 3.6,-3.7 -2.3,-2.1 -5.3,-3.3 -8.6,-3.3 -7.1,0 -12.8,5.7 -12.8,12.8 0,7.1 5.7,12.8 12.8,12.8 10.6,0 13.2,-9.2 12.3,-15.4 h -12.3 z"
         id="path803-2-6-6" /><polygon
         style="fill:#8e99a8"
         points="251.4,166.2 254.5,166.2 254.5,161.6 259,161.6 259,158.5 254.5,158.5 254.5,154 251.4,154 251.4,158.5 246.8,158.5 246.8,161.6 251.4,161.6 "
         id="polygon805-6-1-3" /></g></g></g></svg>